<mxfile host="app.diagrams.net" modified="2022-07-07T09:43:11.061Z" agent="5.0 (Macintosh; Intel Mac OS X 10_15_7) AppleWebKit/537.36 (KHTML, like Gecko) Chrome/103.0.0.0 Safari/537.36" etag="Q-FmR5eTp9SlRgQaJ5BU" version="20.0.3" type="github">
  <diagram id="W8vpa0c155ABnqsFU1uP" name="Page-1">
    <mxGraphModel dx="946" dy="589" grid="1" gridSize="10" guides="1" tooltips="1" connect="1" arrows="1" fold="1" page="1" pageScale="1" pageWidth="827" pageHeight="1169" math="0" shadow="0">
      <root>
        <mxCell id="0" />
        <mxCell id="1" parent="0" />
        <mxCell id="11Xqks6q31Xju2x3Zwvq-1" value="" style="outlineConnect=0;dashed=0;verticalLabelPosition=bottom;verticalAlign=top;align=center;html=1;shape=mxgraph.aws3.search_documents;fillColor=#F58534;gradientColor=none;" vertex="1" parent="1">
          <mxGeometry x="180" y="160" width="60" height="63" as="geometry" />
        </mxCell>
      </root>
    </mxGraphModel>
  </diagram>
</mxfile>
